<?xml version="1.0" encoding="UTF-8" standalone="no"?>
<!-- Created with Inkscape (http://www.inkscape.org/) -->

<svg
   xmlns:dc="http://purl.org/dc/elements/1.1/"
   xmlns:cc="http://creativecommons.org/ns#"
   xmlns:rdf="http://www.w3.org/1999/02/22-rdf-syntax-ns#"
   xmlns:svg="http://www.w3.org/2000/svg"
   xmlns="http://www.w3.org/2000/svg"
   xmlns:sodipodi="http://sodipodi.sourceforge.net/DTD/sodipodi-0.dtd"
   xmlns:inkscape="http://www.inkscape.org/namespaces/inkscape"
   width="39.796101mm"
   height="39.796101mm"
   viewBox="0 0 141.00981 141.00981"
   id="svg2"
   version="1.1"
   inkscape:version="0.91 r13725"
   sodipodi:docname="logo-path.svg">
  <defs
     id="defs4" />
  <sodipodi:namedview
     id="base"
     pagecolor="#ffffff"
     bordercolor="#666666"
     borderopacity="1.0"
     inkscape:pageopacity="0.0"
     inkscape:pageshadow="2"
     inkscape:zoom="1.4"
     inkscape:cx="-75.61714"
     inkscape:cy="4.2857098"
     inkscape:document-units="px"
     inkscape:current-layer="layer1"
     showgrid="false"
     fit-margin-top="0"
     fit-margin-left="0"
     fit-margin-right="0"
     fit-margin-bottom="0"
     inkscape:window-width="1680"
     inkscape:window-height="944"
     inkscape:window-x="-4"
     inkscape:window-y="30"
     inkscape:window-maximized="1" />
  <metadata
     id="metadata7">
    <rdf:RDF>
      <cc:Work
         rdf:about="">
        <dc:format>image/svg+xml</dc:format>
        <dc:type
           rdf:resource="http://purl.org/dc/dcmitype/StillImage" />
        <dc:title></dc:title>
      </cc:Work>
    </rdf:RDF>
  </metadata>
  <g
     inkscape:label="Ebene 1"
     inkscape:groupmode="layer"
     id="layer1"
     transform="translate(-118.83143,-252.78096)">
    <g
       id="g4152">
      <g
         id="text4136"
         style="font-style:normal;font-variant:normal;font-weight:500;font-stretch:normal;font-size:180px;line-height:125%;font-family:'CMU Serif';-inkscape-font-specification:'CMU Serif Medium';letter-spacing:0px;word-spacing:0px;fill:#000000;fill-opacity:1;stroke:none;stroke-width:1px;stroke-linecap:butt;stroke-linejoin:miter;stroke-opacity:1">
        <path
           id="path4143"
           style=""
           d="m 118.83143,287.01586 c 0,1.8 2.7,2.16 3.42,2.34 8.46,2.16 8.64,16.74 8.64,24.66 1.44,33.48 21.96,44.28 39.6,46.26 l 0,10.62 c 0,7.02 -2.52,8.28 -19.62,8.28 l -3.6,0 0,5.58 c 10.26,-0.36 20.52,-0.54 30.78,-0.54 10.08,0 20.34,0.18 30.6,0.54 l 0,-5.58 -3.42,0 c -17.46,0 -19.62,-1.44 -19.62,-8.28 l 0,-10.44 c 12.06,-1.8 38.7,-8.1 40.32,-46.44 0.18,-7.74 0,-22.32 8.64,-24.66 0.9,-0.18 3.42,-0.54 3.42,-2.34 0,-1.8 -1.62,-2.16 -5.76,-2.16 l -5.4,0 c -5.22,0 -13.86,0.9 -15.66,19.26 -0.9,9 2.7,43.92 -25.56,51.66 l 0,-79.92 c 0,-7.92 3.6,-8.46 20.34,-8.46 l 2.7,0 0,-5.58 c -10.26,0.36 -20.52,0.54 -30.6,0.54 -10.26,0 -20.52,-0.18 -30.78,-0.54 l 0,5.58 2.7,0 c 17.46,0 20.52,0.72 20.52,8.46 l 0,79.92 c -20.34,-5.76 -24.48,-27.9 -24.48,-43.02 l 0,-2.52 c 0,-6.48 -0.9,-22.86 -12.24,-25.02 -1.62,-0.36 -3.42,-0.36 -5.04,-0.36 l -4.14,0 c -4.5,0 -5.76,0.54 -5.76,2.16 z" />
      </g>
      <g
         id="text4146"
         style="font-style:normal;font-weight:normal;font-size:40px;line-height:125%;font-family:sans-serif;letter-spacing:0px;word-spacing:0px;fill:#000000;fill-opacity:1;stroke:none;stroke-width:1px;stroke-linecap:butt;stroke-linejoin:miter;stroke-opacity:1">
        <path
           id="path4146"
           style="font-style:normal;font-variant:normal;font-weight:500;font-stretch:normal;font-family:'CMU Serif';-inkscape-font-specification:'CMU Serif Medium'"
           d="m 218.96,364.75586 c 0,3.12 0.44,7.96 2.64,12.48 2.4,4.92 5.84,7.52 6.24,7.52 0.24,0 0.4,-0.12 0.4,-0.4 0,-0.12 0,-0.2 -0.68,-0.88 -5,-5.04 -6.28,-12.6 -6.28,-18.72 0,-6.96 1.52,-13.92 6.44,-18.92 0.52,-0.48 0.52,-0.56 0.52,-0.68 0,-0.28 -0.16,-0.4 -0.4,-0.4 -0.4,0 -4,2.72 -6.36,7.8 -2.04,4.4 -2.52,8.84 -2.52,12.2 z" />
        <path
           id="path4148"
           style="font-style:normal;font-variant:normal;font-weight:500;font-stretch:normal;font-family:'CMU Serif';-inkscape-font-specification:'CMU Serif Medium'"
           d="m 231.90688,366.11586 c 0,5.12 3.95999,9.08 8.59999,9.08 5.36,0 6.64,-4.8 6.64,-5.2 0,-0.4 -0.4,-0.4 -0.52,-0.4 -0.36,0 -0.44,0.16 -0.52,0.4 -1.16,3.72 -3.76,4.2 -5.24,4.2 -2.12,0 -5.64,-1.72 -5.64,-8.16 0,-6.52 3.28,-8.2 5.4,-8.2 0.36,0 2.88,0.04 4.28001,1.48 -1.64001,0.12 -1.88001,1.32 -1.88001,1.84 0,1.04 0.72,1.84 1.84,1.84 1.04001,0 1.84,-0.68 1.84,-1.88 0,-2.72 -3.04,-4.28 -6.12,-4.28 -5,0 -8.67999,4.32 -8.67999,9.28 z" />
        <path
           id="path4150"
           style="font-style:normal;font-variant:normal;font-weight:500;font-stretch:normal;font-family:'CMU Serif';-inkscape-font-specification:'CMU Serif Medium'"
           d="m 250.56125,384.35586 c 0,0.24 0.16,0.4 0.4,0.4 0.4,0 4,-2.72 6.36,-7.8 2.04,-4.4 2.52,-8.84 2.52,-12.2 0,-3.12 -0.44,-7.96 -2.64,-12.48 -2.4,-4.92 -5.84,-7.52 -6.24,-7.52 -0.24,0 -0.4,0.16 -0.4,0.4 0,0.12 0,0.2 0.76,0.92 3.92,3.96 6.2,10.32 6.2,18.68 0,6.84 -1.48,13.88 -6.44,18.92 -0.52,0.48 -0.52,0.56 -0.52,0.68 z" />
      </g>
    </g>
  </g>
</svg>
