<?xml version="1.0" encoding="UTF-8" standalone="no"?>
<!-- Created with Inkscape (http://www.inkscape.org/) -->

<svg
   xmlns:dc="http://purl.org/dc/elements/1.1/"
   xmlns:cc="http://creativecommons.org/ns#"
   xmlns:rdf="http://www.w3.org/1999/02/22-rdf-syntax-ns#"
   xmlns:svg="http://www.w3.org/2000/svg"
   xmlns="http://www.w3.org/2000/svg"
   xmlns:xlink="http://www.w3.org/1999/xlink"
   xmlns:sodipodi="http://sodipodi.sourceforge.net/DTD/sodipodi-0.dtd"
   xmlns:inkscape="http://www.inkscape.org/namespaces/inkscape"
   width="48"
   height="48"
   viewBox="0 0 48 48.000001"
   id="svg4447"
   version="1.1"
   inkscape:version="0.91 r13725"
   sodipodi:docname="best-units.svg">
  <defs
     id="defs4449">
    <linearGradient
       id="linearGradient7358"
       inkscape:collect="always">
      <stop
         id="stop7360"
         offset="0"
         style="stop-color:#000000;stop-opacity:1;" />
      <stop
         id="stop7362"
         offset="1"
         style="stop-color:#000000;stop-opacity:0;" />
    </linearGradient>
    <linearGradient
       gradientTransform="matrix(0,-0.9455535,0.98598615,0,-3.1349105,1056.6494)"
       gradientUnits="userSpaceOnUse"
       id="linearGradient7338"
       inkscape:collect="always"
       x1="15.75"
       x2="4.5266504"
       xlink:href="#linearGradient7223"
       y1="37"
       y2="-0.52360207" />
    <linearGradient
       id="linearGradient7223"
       inkscape:collect="always">
      <stop
         id="stop7225"
         offset="0"
         style="stop-color:#fce94f;stop-opacity:0.78431374" />
      <stop
         id="stop7227"
         offset="1"
         style="stop-color:#edd400;stop-opacity:0.78431374" />
    </linearGradient>
    <radialGradient
       cx="3.031251"
       cy="40.624996"
       fx="3.031251"
       fy="40.624996"
       gradientTransform="matrix(1.4303257,0,0,1.1936184,18.165053,993.26619)"
       gradientUnits="userSpaceOnUse"
       id="radialGradient7340"
       inkscape:collect="always"
       r="13"
       xlink:href="#linearGradient7007" />
    <linearGradient
       id="linearGradient7007"
       inkscape:collect="always">
      <stop
         id="stop7009"
         offset="0"
         style="stop-color:#c4a000;stop-opacity:1;" />
      <stop
         id="stop7011"
         offset="1"
         style="stop-color:#c4a000;stop-opacity:0;" />
    </linearGradient>
    <linearGradient
       gradientTransform="matrix(0,-1.0893199,1.0278441,0,-4.223897,1059.2286)"
       gradientUnits="userSpaceOnUse"
       id="linearGradient7342"
       inkscape:collect="always"
       x1="11.297456"
       x2="28.65008"
       xlink:href="#linearGradient7215"
       y1="26.989407"
       y2="26.806986" />
    <linearGradient
       id="linearGradient7215"
       inkscape:collect="always">
      <stop
         id="stop7217"
         offset="0"
         style="stop-color:#ffffff;stop-opacity:1;" />
      <stop
         id="stop7219"
         offset="1"
         style="stop-color:#ffffff;stop-opacity:0;" />
    </linearGradient>
    <linearGradient
       gradientTransform="matrix(0,-1.5000004,1.5,0,-10.499997,1062.8622)"
       gradientUnits="userSpaceOnUse"
       id="linearGradient7344"
       inkscape:collect="always"
       x1="11.22532"
       x2="8.9998951"
       xlink:href="#linearGradient7358"
       y1="26.521631"
       y2="26.521631" />
    <linearGradient
       gradientUnits="userSpaceOnUse"
       id="linearGradient7346"
       inkscape:collect="always"
       x1="-10.5625"
       x2="-9.875"
       xlink:href="#linearGradient7215"
       y1="17.5625"
       y2="25.5625" />
    <linearGradient
       id="linearGradient6939">
      <stop
         id="stop6941"
         offset="0"
         style="stop-color:#babdb6;stop-opacity:1;" />
      <stop
         id="stop7051"
         offset="0.24743238"
         style="stop-color:#ededed;stop-opacity:1;" />
      <stop
         id="stop7053"
         offset="0.53371018"
         style="stop-color:#b6b9b1;stop-opacity:1;" />
      <stop
         id="stop7049"
         offset="0.83191627"
         style="stop-color:#e9eae8;stop-opacity:1;" />
      <stop
         id="stop6943"
         offset="1"
         style="stop-color:#b5b9b2;stop-opacity:1;" />
    </linearGradient>
    <linearGradient
       id="linearGradient7065">
      <stop
         id="stop7067"
         offset="0"
         style="stop-color:#888a85;stop-opacity:1;" />
      <stop
         id="stop7073"
         offset="0.70408165"
         style="stop-color:#cfd0ce;stop-opacity:1;" />
      <stop
         id="stop7069"
         offset="1"
         style="stop-color:#888a85;stop-opacity:1;" />
    </linearGradient>
    <linearGradient
       id="linearGradient6931">
      <stop
         id="stop6933"
         offset="0"
         style="stop-color:#a1a29e;stop-opacity:1;" />
      <stop
         id="stop6935"
         offset="1"
         style="stop-color:#888a85;stop-opacity:0;" />
    </linearGradient>
    <linearGradient
       gradientTransform="translate(10,0)"
       gradientUnits="userSpaceOnUse"
       id="linearGradient5259"
       inkscape:collect="always"
       x1="6.3601508"
       x2="18"
       xlink:href="#linearGradient6939"
       y1="2.5681367"
       y2="41.975765" />
    <linearGradient
       gradientTransform="translate(10,-1)"
       gradientUnits="userSpaceOnUse"
       id="linearGradient7039-9"
       inkscape:collect="always"
       x1="12.6875"
       x2="12.6875"
       xlink:href="#linearGradient7215"
       y1="17.550121"
       y2="23.321859" />
    <linearGradient
       gradientTransform="translate(10,0)"
       gradientUnits="userSpaceOnUse"
       id="linearGradient6961-8"
       inkscape:collect="always"
       x1="9.015625"
       x2="22.226398"
       xlink:href="#linearGradient7215"
       y1="8.1772938"
       y2="34.389534" />
    <linearGradient
       gradientTransform="matrix(1,0,0,0.75,7,2.875)"
       gradientUnits="userSpaceOnUse"
       id="linearGradient7071-7"
       inkscape:collect="always"
       x1="20.461903"
       x2="20.461903"
       xlink:href="#linearGradient7065"
       y1="15.32668"
       y2="11.746678" />
    <linearGradient
       gradientTransform="matrix(0.5,0,0,1,14.5,-4)"
       gradientUnits="userSpaceOnUse"
       id="linearGradient7043-3"
       inkscape:collect="always"
       x1="12.6875"
       x2="12.6875"
       xlink:href="#linearGradient7358"
       y1="17.550121"
       y2="21.500893" />
    <linearGradient
       gradientTransform="matrix(0.5,0,0,1,18.5,-4)"
       gradientUnits="userSpaceOnUse"
       id="linearGradient7047-9"
       inkscape:collect="always"
       x1="12.6875"
       x2="12.6875"
       xlink:href="#linearGradient7358"
       y1="17.550121"
       y2="21.500893" />
    <linearGradient
       gradientTransform="translate(0,-1)"
       gradientUnits="userSpaceOnUse"
       id="linearGradient6973-3"
       inkscape:collect="always"
       x1="9.53125"
       x2="11.157452"
       xlink:href="#linearGradient7215"
       y1="17.5625"
       y2="17.5625" />
  </defs>
  <sodipodi:namedview
     id="base"
     pagecolor="#ffffff"
     bordercolor="#666666"
     borderopacity="1.0"
     inkscape:pageopacity="0.0"
     inkscape:pageshadow="2"
     inkscape:zoom="7.9195959"
     inkscape:cx="14.792176"
     inkscape:cy="21.19746"
     inkscape:document-units="px"
     inkscape:current-layer="layer1"
     showgrid="false"
     units="px"
     inkscape:snap-bbox="true"
     inkscape:bbox-nodes="true"
     inkscape:window-width="1680"
     inkscape:window-height="944"
     inkscape:window-x="0"
     inkscape:window-y="30"
     inkscape:window-maximized="1">
    <sodipodi:guide
       position="0,0"
       orientation="0,48"
       id="guide4995" />
    <sodipodi:guide
       position="48,0"
       orientation="-48,0"
       id="guide4997" />
    <sodipodi:guide
       position="48,48.000001"
       orientation="0,-48"
       id="guide4999" />
    <sodipodi:guide
       position="0,48.000001"
       orientation="48,0"
       id="guide5001" />
  </sodipodi:namedview>
  <metadata
     id="metadata4452">
    <rdf:RDF>
      <cc:Work
         rdf:about="">
        <dc:format>image/svg+xml</dc:format>
        <dc:type
           rdf:resource="http://purl.org/dc/dcmitype/StillImage" />
        <dc:title></dc:title>
      </cc:Work>
    </rdf:RDF>
  </metadata>
  <g
     inkscape:label="Layer 1"
     inkscape:groupmode="layer"
     id="layer1"
     transform="translate(0,-1004.3622)">
    <g
       id="g5183"
       transform="matrix(0,1.332831,-1.332831,0,1398.6225,998.3699)">
      <path
         style="fill:url(#linearGradient7338);fill-opacity:1;fill-rule:evenodd;stroke:#c4a000;stroke-width:1.49999988;stroke-linecap:round;stroke-linejoin:round;stroke-miterlimit:4;stroke-dasharray:none;stroke-opacity:1"
         sodipodi:nodetypes="ccccsssccccssccc"
         id="path166"
         d="m 5.2459705,1048.6122 34.5095165,0 0.004,-4.5 -3.943945,0 c 0.0061,-0.1573 0,-0.3728 0,-0.5319 0,-7.0462 -5.967274,-12.9927 -13.314843,-12.9927 -7.34757,0 -13.3067845,5.9465 -13.3067845,12.9927 0,0.1591 0.02469,0.3746 0.03081,0.5319 l -3.9747555,0 -0.00405,4.5 z m 8.8779045,-5.0319 c 0,-4.4365 3.750606,-8.265 8.376853,-8.265 4.626248,10e-5 8.384912,3.8285 8.384912,8.265 0,0.158 0.0095,0.3761 0,0.5319 l -16.761765,0 c -0.0094,-0.1558 0,-0.3739 0,-0.5319 z"
         inkscape:connector-curvature="0" />
      <path
         style="fill:url(#radialGradient7340);fill-opacity:1;fill-rule:evenodd;stroke:none;stroke-width:1px;stroke-linecap:butt;stroke-linejoin:miter;stroke-opacity:1"
         id="path168"
         d="m 9.682909,1041.3728 1.386543,0.3841 c 0.07517,-0.3102 0.17616,-0.616 0.277308,-0.916 l -1.4173545,-0.3841 -0.2464965,0.916 z m 1.201671,-3.2503 1.324919,0.7682 c 0.154266,-0.2695 0.317196,-0.5422 0.492993,-0.7978 l -1.355732,-0.7978 -0.46218,0.8274 z m 1.971972,-2.8367 1.201671,1.2115 c 0.227838,-0.2285 0.461867,-0.4405 0.708677,-0.6501 l -1.232483,-1.241 -0.677865,0.6796 z m 2.68065,-2.2161 0.89355,1.5956 c 0.267652,-0.1571 0.550892,-0.3068 0.831926,-0.4432 l -0.924362,-1.6252 -0.801114,0.4728 z m 3.112019,-1.4479 0.492993,1.8615 c 0.296552,-0.086 0.587769,-0.1436 0.89355,-0.2068 l -0.492993,-1.8911 -0.89355,0.2364 z m 3.389327,1.4183 c 0.154121,-0.01 0.306622,-0.029 0.462181,-0.029 0.155559,0 0.308061,0.024 0.462181,0.029 l 0,-1.9797 -0.924362,0 0,1.9797 z m 2.927146,0.2364 c 0.305781,0.063 0.596998,0.1211 0.89355,0.2068 l 0.492993,-1.8615 -0.89355,-0.2364 -0.492993,1.8911 z m 2.773086,0.9456 c 0.281034,0.1364 0.564274,0.2861 0.831926,0.4432 l 0.89355,-1.5956 -0.801113,-0.4728 -0.924363,1.6252 z m 2.495778,1.6251 c 0.24681,0.2096 0.48084,0.4216 0.708677,0.6501 l 1.201671,-1.2115 -0.677865,-0.6796 -1.232483,1.241 z m 2.064408,2.2457 c 0.175797,0.2556 0.338727,0.5283 0.492993,0.7978 l 1.324919,-0.7682 -0.462181,-0.8274 -1.355731,0.7978 z m 1.355731,2.748 c 0.101148,0.3 0.202136,0.6058 0.277309,0.916 l 1.386543,-0.3841 -0.246497,-0.916 -1.417355,0.3841 z"
         inkscape:connector-curvature="0" />
      <path
         style="opacity:0.7;fill:none;fill-opacity:1;fill-rule:evenodd;stroke:url(#linearGradient7342);stroke-width:1.49999976;stroke-linecap:round;stroke-linejoin:miter;stroke-miterlimit:4;stroke-opacity:1"
         sodipodi:nodetypes="cssssscccc"
         id="path170"
         d="m 12.735529,1044.693 c -0.0015,-0.034 -0.0015,-0.068 0,-0.1021 -0.01548,-0.2808 0,-0.5407 0,-0.6808 1e-6,-5.7005 4.385746,-10.3486 9.764518,-10.3486 5.378774,0 9.764518,4.6481 9.764518,10.3486 0,0.1401 0.01548,0.4 0,0.6808 -0.03402,0.5748 -0.484371,1.0223 -1.027844,1.0212 l -17.47335,0 c -0.510417,0.01 -0.948076,-0.3848 -1.027842,-0.9191 l 0,0 z"
         inkscape:connector-curvature="0" />
      <path
         style="opacity:0.2;fill:url(#linearGradient7344);fill-opacity:1;fill-rule:evenodd;stroke:none;stroke-width:1;stroke-linecap:round;stroke-linejoin:miter;stroke-miterlimit:10;stroke-dasharray:none;stroke-opacity:1"
         sodipodi:nodetypes="cccccccccccccccccccccccccccccccccccccccccccccccccc"
         id="path172"
         d="m 7.500001,1049.3622 1.5000015,0 0,-3 -1.5000015,0 0,3 z m 2.999999,0 1.500001,0 0,-3 -1.500001,0 0,3 z m 3,0 1.5,0 0,-3 -1.5,0 0,3 z m 3.000002,0 1.5,0 0,-3 -1.5,0 0,3 z m 2.999999,0 1.5,0 0,-3 -1.5,0 0,3 z m 3,0 1.5,0 0,-3 -1.5,0 0,3 z m 3,0 1.5,0 0,-3 -1.5,0 0,3 z m 3,0 1.5,0 0,-3 -1.5,0 0,3 z m 3,0 1.5,0 0,-3 -1.5,0 0,3 z m 3,0 1.5,0 0,-3 -1.5,0 0,3 z"
         inkscape:connector-curvature="0" />
    </g>
    <path
       d="m -6,14.511719 c -4.332413,0 -7.832031,3.535212 -7.832031,7.644531 0,-0.0719 0.01955,0.05245 0.0293,0.302734 a 1.0423308,1.0423308 0 0 1 -1.041016,1.083985 l -1.613281,0 0,0.914062 20.9140622,0 0,-0.914062 -1.5820312,0 A 1.0423308,1.0423308 0 0 1 1.8339844,22.458984 c 0.0017,-0.04368 -0.00195,-0.169925 -0.00195,-0.302734 C 1.8320313,18.046932 -1.667587,14.511719 -6,14.511719 Z"
       id="path7319"
       inkscape:original="M -6 13.46875 C -10.898379 13.46875 -14.875 17.458741 -14.875 22.15625 C -14.875 22.262319 -14.847832 22.395145 -14.84375 22.5 L -17.5 22.5 L -17.5 25.5 L 5.5 25.5 L 5.5 22.5 L 2.875 22.5 C 2.8790821 22.395145 2.875 22.262318 2.875 22.15625 C 2.8750001 17.458742 -1.1016208 13.46875 -6 13.46875 z "
       inkscape:radius="-1.0422266"
       sodipodi:type="inkscape:offset"
       style="opacity:0.7;fill:none;fill-opacity:1;fill-rule:evenodd;stroke:url(#linearGradient7346);stroke-width:1;stroke-linecap:round;stroke-linejoin:miter;stroke-miterlimit:4;stroke-dasharray:none;stroke-opacity:1" />
    <g
       id="g16"
       style="display:inline;enable-background:new"
       transform="matrix(1.4068168,0.95512115,-0.95512115,1.4068168,26.418771,1012.4428)">
      <path
         inkscape:connector-curvature="0"
         d="m 13.5,6.5 2,0 -3,-3 1,3 z"
         id="path241"
         sodipodi:nodetypes="cccc"
         style="fill:#555753;fill-rule:evenodd;stroke:#555753;stroke-width:1px;stroke-linecap:butt;stroke-linejoin:round;stroke-opacity:1" />
      <path
         inkscape:connector-curvature="0"
         d="m 11.5,0.5 -4,0 C 5.4651474,0.5 1.4722718,1.5277282 1.4722718,1.5277282 0.6034698,2.0293312 0.5,1.9407971 0.5,3.5 l 8,0 0,20 4,0 0,-17.96875 3,-3.03125 -3,0 0,-1 -1,-1 z"
         id="path243"
         sodipodi:nodetypes="cccccccccccc"
         style="fill:url(#linearGradient5259);fill-opacity:1;fill-rule:evenodd;stroke:#a1a29e;stroke-width:1px;stroke-linecap:butt;stroke-linejoin:miter;stroke-opacity:1" />
      <path
         inkscape:connector-curvature="0"
         d="m 9,8 0,1 3,0 0,-1 -3,0 z m 0,2 0,1 2,0 0,-1 -2,0 z m 0,2 0,1 3,0 0,-1 -3,0 z m 0,2 0,1 2,0 0,-1 -2,0 z m 0,2 0,1 3,0 0,-1 -3,0 z m 0,2 0,1 2,0 0,-1 -2,0 z m 0,2 0,1 3,0 0,-1 -3,0 z"
         id="path245"
         sodipodi:nodetypes="ccccccccccccccccccccccccccccccccccc"
         style="opacity:0.69402986;fill:url(#linearGradient7039-9);fill-opacity:1;fill-rule:evenodd;stroke:none;stroke-width:1;stroke-linecap:round;stroke-linejoin:miter;stroke-miterlimit:10;stroke-dasharray:none;stroke-opacity:1" />
      <path
         inkscape:connector-curvature="0"
         d="M 7.5,1.5 C 4.6322839,1.7272266 3.8567877,1.9289841 1.53125,2.53125 L 9.46875,2.5 l 0,20.03125 2.0625,0 0,-17 C 11.533235,4.9970483 11.965798,4.5644846 12.5,4.5625 l 0,-1.09375 C 11.965798,3.4667654 11.533235,3.0342017 11.53125,2.5 L 11.5,1.5 l -4,0 z"
         id="path247"
         sodipodi:nodetypes="ccccccccccc"
         style="opacity:0.92537315;fill:none;fill-opacity:1;fill-rule:evenodd;stroke:url(#linearGradient6961-8);stroke-width:1px;stroke-linecap:butt;stroke-linejoin:miter;stroke-opacity:1" />
      <path
         inkscape:connector-curvature="0"
         d="m 0.5,5.5 c 0,1.559203 0.0999481,1.467147 0.96875,1.96875 L 7,8.5 c 0.373164,0.185835 0.5,0.5 0.5,1 l 0,4 -1,0 c -0.554,0 -1,0.446 -1,1 0,0.554 0.446,1 1,1 l 1,0 2,0 0,-10 -9,0 z m 11,0 0,10 2,0 0,-10 -2,0 z"
         id="path249"
         sodipodi:nodetypes="ccccccscccccccccc"
         style="opacity:1;fill:#babdb6;fill-opacity:1;fill-rule:evenodd;stroke:#888a85;stroke-width:1;stroke-linecap:round;stroke-linejoin:miter;stroke-miterlimit:10;stroke-dasharray:none;stroke-opacity:1" />
      <g
         id="g251"
         style="opacity:0.6268657"
         transform="translate(-2,-3)">
        <path
           inkscape:connector-curvature="0"
           d="M 3.515625,9.5 C 5.7070904,10.581809 8.6239684,9.56228 10.28125,11.4375 10.452659,11.79686 10.5,13.165442 10.5,13.5 l 0,-4 -6.984375,0 z"
           id="path253"
           sodipodi:nodetypes="ccccc"
           style="fill:none;fill-rule:evenodd;stroke:#ffffff;stroke-width:1px;stroke-linecap:butt;stroke-linejoin:miter;stroke-opacity:1" />
        <path
           inkscape:connector-curvature="0"
           d="m 10.5,18 0,-5.5"
           id="path255"
           sodipodi:nodetypes="cc"
           style="fill:none;fill-rule:evenodd;stroke:#ffffff;stroke-width:1px;stroke-linecap:butt;stroke-linejoin:miter;stroke-opacity:1" />
        <path
           inkscape:connector-curvature="0"
           d="m 14.5,18 0,-9"
           id="path257"
           sodipodi:nodetypes="cc"
           style="fill:none;fill-rule:evenodd;stroke:#ffffff;stroke-width:1px;stroke-linecap:butt;stroke-linejoin:miter;stroke-opacity:1" />
      </g>
      <rect
         height="3"
         id="rect259"
         rx="0.4826141"
         ry="0.36196059"
         style="opacity:1;fill:#eeeeec;fill-opacity:1;fill-rule:evenodd;stroke:url(#linearGradient7071-7);stroke-width:1;stroke-linecap:round;stroke-linejoin:miter;stroke-miterlimit:10;stroke-dasharray:none;stroke-opacity:1"
         width="2"
         x="13.5"
         y="11.5" />
      <rect
         height="1"
         id="rect261"
         style="opacity:0.21268658;fill:#000000;fill-opacity:1;fill-rule:evenodd;stroke:none;stroke-width:1;stroke-linecap:round;stroke-linejoin:miter;stroke-miterlimit:10;stroke-dasharray:none;stroke-opacity:1"
         width="1"
         x="14"
         y="13" />
      <path
         inkscape:connector-curvature="0"
         d="M 8,7 8,8 9,8 9,7 8,7 Z m 0,2 0,1 1,0 0,-1 -1,0 z m 0,2 0,1 1,0 0,-1 -1,0 z m 0,2 0,1 1,0 0,-1 -1,0 z"
         id="path263"
         sodipodi:nodetypes="cccccccccccccccccccc"
         style="opacity:0.15671644;fill:url(#linearGradient7043-3);fill-opacity:1;fill-rule:evenodd;stroke:none;stroke-width:1;stroke-linecap:round;stroke-linejoin:miter;stroke-miterlimit:10;stroke-dasharray:none;stroke-opacity:1" />
      <path
         inkscape:connector-curvature="0"
         d="m 12,7 0,1 1,0 0,-1 -1,0 z m 0,2 0,1 1,0 0,-1 -1,0 z m 0,2 0,1 1,0 0,-1 -1,0 z m 0,2 0,1 1,0 0,-1 -1,0 z"
         id="path265"
         sodipodi:nodetypes="cccccccccccccccccccc"
         style="opacity:0.1;fill:url(#linearGradient7047-9);fill-opacity:1;fill-rule:evenodd;stroke:none;stroke-width:1;stroke-linecap:round;stroke-linejoin:miter;stroke-miterlimit:10;stroke-dasharray:none;stroke-opacity:1" />
      <path
         inkscape:connector-curvature="0"
         d="m 6.5,17.5 2,0"
         id="path267"
         style="opacity:0.53731342;fill:none;fill-opacity:1;fill-rule:evenodd;stroke:url(#linearGradient6973-3);stroke-width:1px;stroke-linecap:round;stroke-linejoin:miter;stroke-opacity:1" />
      <rect
         height="1"
         id="rect269"
         style="opacity:1;fill:#d3d7cf;fill-opacity:1;fill-rule:evenodd;stroke:none;stroke-width:1;stroke-linecap:round;stroke-linejoin:miter;stroke-miterlimit:10;stroke-dasharray:none;stroke-opacity:1"
         width="3"
         x="1"
         y="2" />
      <rect
         height="1"
         id="rect271"
         style="opacity:1;fill:#ffffff;fill-opacity:1;fill-rule:evenodd;stroke:none;stroke-width:1;stroke-linecap:round;stroke-linejoin:miter;stroke-miterlimit:10;stroke-dasharray:none;stroke-opacity:1"
         width="3"
         x="1"
         y="6" />
      <rect
         height="1"
         id="rect273"
         style="opacity:1;fill:#ffffff;fill-opacity:1;fill-rule:evenodd;stroke:none;stroke-width:1;stroke-linecap:round;stroke-linejoin:miter;stroke-miterlimit:10;stroke-dasharray:none;stroke-opacity:1"
         width="1"
         x="13"
         y="3" />
    </g>
  </g>
</svg>
